<svg xmlns="http://www.w3.org/2000/svg" xmlns:xlink="http://www.w3.org/1999/xlink" xmlns:xodm="http://www.corel.com/coreldraw/odm/2003" xml:space="preserve" version="1.0" style="shape-rendering:geometricPrecision;text-rendering:geometricPrecision;image-rendering:optimizeQuality;" viewBox="0 0 5654 7067.5" x="0px" y="0px" fill-rule="evenodd" clip-rule="evenodd"><defs><style type="text/css">
   
    .fil0 {fill:none}
    .fil1 {fill:black;fill-rule:nonzero}
   
  </style></defs><g><g><rect class="fil0" width="5654" height="5654"/><path class="fil1" d="M4968 2811c-30,49 -35,102 -45,156 1,-220 0,-440 -3,-660 0,-2 0,-2 0,-3 17,-36 22,-77 7,-113 -9,-23 -52,-54 -50,-72 3,-27 108,-37 133,-43 153,-34 325,-75 469,-142 11,192 21,385 31,577 -155,139 -426,106 -542,300zm-231 -740c-48,26 -96,53 -144,79l-18 -55 42 -21c30,-15 59,-29 89,-44 77,-38 155,-75 233,-113 24,8 49,15 73,23 -57,12 -114,22 -167,41 -46,17 -88,46 -108,90zm-206 112c-48,25 -97,50 -146,73 -129,63 -260,121 -386,190 -2,1 -4,2 -6,4l-175 39c231,-121 461,-245 695,-363l18 57zm-321 218c112,-56 226,-111 339,-167l28 85c-6,2 -12,3 -18,4 -101,23 -202,45 -303,68l-46 10zm401 -199c39,-19 77,-40 116,-60 0,3 1,6 1,8 3,12 8,21 14,28l-118 65 -13 -41zm567 1351c-3,72 -9,145 -16,217 -36,2 -72,5 -107,7 0,-236 -6,-471 -20,-706 12,-31 20,-64 26,-99 15,-89 58,-140 122,-177 2,253 7,506 -5,758zm-399 -1329c28,53 -46,60 -86,69 -16,4 -32,8 -48,11l-2 -5 136 -75zm-223 -184l-11 -33c79,-39 159,-79 238,-119 5,-2 8,-5 11,-8 20,4 40,9 60,14 -100,48 -199,97 -298,146zm-30 -88l-15 -47 112 -54c2,-1 4,-2 6,-3 26,4 52,9 78,14 -60,30 -120,60 -181,90zm-34 -102l-7 -22c14,2 29,3 43,5l-36 17zm323 1570c-17,13 -35,24 -53,35 -74,48 -153,90 -232,130 -148,77 -299,150 -433,248 -127,94 -234,212 -291,356 -61,152 -65,318 -64,479 0,195 3,390 4,585 -39,1 -77,3 -116,4l-68 3c-12,0 -23,0 -34,1l-7 0c0,-8 -2,-15 -6,-23 5,-252 5,-503 -2,-755 -2,-64 -4,-129 -7,-193 -3,-61 -5,-122 -14,-183 -16,-104 -61,-208 -157,-269 -27,-17 -56,-28 -85,-35 235,-45 471,-89 703,-150 214,-55 425,-120 632,-197 89,-34 172,-74 243,-125 1,17 2,33 3,50 0,18 -1,27 -16,39zm-1787 288c-68,11 -136,21 -204,30l-14 -287c171,-32 353,-90 421,-255 52,-129 -12,-270 -140,-318 2,-31 4,-63 6,-94 410,-92 820,-184 1230,-275 101,-23 201,-46 302,-68 48,-11 103,-19 154,-35 2,266 3,531 0,797 -83,69 -189,113 -293,148 -374,129 -759,228 -1149,302 -104,20 -209,36 -313,55zm-308 -373c-28,5 -52,37 -51,63 5,108 10,216 16,324 -717,-331 -1434,-662 -2150,-992 -5,-83 -10,-166 -14,-248 70,-8 134,-28 192,-59 56,26 111,52 167,77 -81,24 -162,49 -242,73 -18,5 -30,23 -25,40 5,16 25,28 43,23 96,-29 192,-58 287,-87 8,-2 14,-7 19,-12 20,9 40,18 60,27 -53,14 -106,27 -160,38 -18,4 -30,24 -24,40 6,18 23,27 42,23 68,-14 135,-31 201,-50 9,-2 16,-8 21,-16 19,9 39,17 58,26 -75,31 -151,59 -230,82 -42,13 -24,75 19,63 97,-29 193,-65 286,-106 2,-1 4,-2 6,-4 24,10 47,20 70,30 -38,18 -76,36 -115,53 -16,8 -22,31 -12,45 11,15 30,19 47,11 49,-22 98,-45 147,-68 4,-1 8,-4 10,-7 25,10 50,21 74,31 -70,31 -141,62 -212,93 -17,8 -21,30 -13,45 10,16 31,19 48,11 82,-36 164,-72 246,-108 4,-1 7,-4 10,-8 2,1 5,2 7,3 23,10 45,19 68,28 -18,9 -36,17 -55,25 -6,3 -13,5 -19,8 -3,1 -6,3 -9,4 -2,1 -4,1 -6,2 0,0 -1,0 -1,1 0,0 -1,0 -2,0 -2,1 -3,2 -5,2 -3,2 -7,3 -10,4 -7,3 -14,5 -21,8 -17,6 -30,22 -24,40 5,15 25,29 43,22 56,-20 112,-44 165,-70 7,-3 12,-10 15,-17 21,9 41,17 62,25 -70,36 -140,72 -210,108 -17,9 -22,30 -13,45 10,15 31,20 48,11 82,-42 164,-84 245,-126 3,-2 6,-4 8,-6 17,7 33,13 50,20 -30,17 -59,35 -89,52 -15,9 -22,29 -12,45 10,14 31,21 47,11l123 -73c3,-1 5,-3 7,-5 31,12 62,24 93,36 -76,47 -155,88 -237,125 -17,8 -22,30 -13,44 10,16 31,20 48,12 87,-39 172,-84 253,-135 8,-4 14,-12 16,-20 27,11 55,21 82,32 -38,19 -75,38 -113,57 -16,8 -22,30 -12,44 10,15 30,20 47,12 51,-26 102,-51 153,-77 2,-1 4,-3 6,-5 29,11 59,22 88,33 -81,37 -162,73 -244,110 -16,8 -21,30 -12,44 10,16 30,20 47,12l270 -122c7,-3 12,-9 15,-16 3,2 7,3 10,4 23,9 47,17 70,26 -34,17 -67,35 -100,53 -16,9 -23,30 -13,44 10,15 31,21 47,12 42,-22 83,-44 124,-66 7,-4 12,-10 15,-17 28,10 56,20 83,30 -80,31 -158,69 -231,113 -16,9 -23,28 -13,44 9,15 32,21 48,12 80,-49 166,-90 255,-122 10,-4 18,-10 22,-19 45,16 89,32 134,47 -56,16 -116,24 -171,33zm-1747 -1364c673,241 1337,503 1991,785 -3,7 -5,14 -5,22 -3,50 -7,99 -10,148 -2,37 34,62 69,65 137,12 93,174 28,233 -19,17 -39,31 -61,42 -304,-104 -607,-214 -906,-331 -299,-116 -596,-239 -889,-368 -138,-60 -275,-123 -411,-186 130,-96 207,-248 194,-410zm707 -133c-6,10 -13,21 -20,31 -18,26 -10,60 5,87 19,33 69,40 104,52 49,17 98,34 147,51 97,34 195,69 292,104 195,71 388,143 581,218 137,53 273,107 409,162 55,22 128,-31 113,-88l-1 -5c342,-147 681,-300 1018,-458 40,-19 80,-38 120,-57l16 47c-246,122 -493,242 -742,359 -96,46 -193,92 -290,137 -14,6 -18,27 -10,39 8,15 25,17 39,11 342,-160 683,-323 1022,-490l11 33c-143,72 -285,145 -426,220 -156,83 -312,166 -469,247l-533 119c-636,-275 -1282,-531 -1935,-768 183,-17 366,-34 549,-51zm1618 555c-4,-19 -6,-37 -8,-56 295,-125 590,-250 880,-388 81,-38 162,-78 243,-119l17 50c-290,138 -582,271 -875,401 -86,38 -171,75 -257,112zm-13 -117c0,-15 0,-30 0,-46l700 -326c69,-32 138,-63 207,-95 1,-1 2,-2 3,-2 41,1 83,3 124,6 -270,134 -545,255 -821,373 -71,30 -142,60 -213,90zm2 -111c2,-21 4,-43 7,-65 225,-93 448,-190 669,-294 2,0 4,-1 5,-3 33,0 65,0 98,1l-627 291 -152 70zm16 -131c4,-22 8,-44 13,-66l409 -155c3,-1 6,-2 8,-4 31,-1 63,-2 94,-3 -173,79 -348,155 -524,228zm28 -134c6,-23 12,-47 19,-71 66,-4 133,-8 200,-11l-219 82zm-1467 -495c0,-1 217,-17 238,-17 81,0 161,5 242,15 160,19 317,60 466,119 38,16 77,33 114,51 107,51 208,113 302,185 -57,206 -99,417 -69,629 -444,-179 -893,-346 -1346,-502 84,-147 104,-320 53,-480zm1489 283c-40,-32 -82,-62 -125,-91 363,-46 730,-58 1095,-35 21,64 43,128 64,192 -220,-18 -443,-18 -663,-9 -119,4 -238,11 -356,18 1,-2 1,-5 2,-7 0,-1 0,-1 0,-2 10,-21 8,-46 -17,-66zm836 -1501c293,-5 587,-17 880,-37 -40,2 -109,59 -145,78 -55,29 -111,57 -167,84 -55,27 -129,46 -168,95 -47,59 -19,148 27,200 104,115 273,92 415,96 69,2 288,-4 289,98 1,72 -142,143 -196,174 -77,45 -156,87 -236,129 -98,52 -198,102 -299,151 -51,24 -102,48 -154,72 -30,14 -59,30 -88,46 -5,2 -9,4 -13,7 -36,-107 -72,-215 -108,-322 -41,-120 -82,-241 -122,-362 -14,-40 -80,-23 -67,17 78,233 157,466 235,698 -26,13 -39,16 -67,15 -17,0 -34,-1 -51,-1 -32,-2 -64,-2 -96,-3 -64,-1 -129,-1 -193,0 -129,2 -257,9 -385,19 -72,6 -144,13 -215,21 -36,4 -71,9 -107,14 -18,2 -36,5 -54,7 -10,2 -45,12 -53,8 -188,-99 -394,-168 -607,-204 579,-369 1146,-758 1745,-1100zm1005 1498c79,18 165,32 241,60 43,16 56,27 18,55 -33,25 -94,38 -134,52 -66,23 -133,44 -200,63 -5,-6 -11,-11 -19,-13 -206,-75 -420,-118 -638,-141l-65 -193c268,20 535,59 797,117zm418 142c30,-67 -5,-145 -93,-188 -73,-36 -162,-49 -241,-68 -100,-23 -200,-43 -301,-61 -161,-28 -324,-50 -487,-65 168,-77 334,-158 497,-244 148,-79 349,-161 440,-304 86,-133 -26,-257 -165,-292 -93,-22 -192,-28 -288,-28 -77,1 -161,2 -229,-36 -20,-15 -32,-36 -28,-65 218,-100 429,-213 633,-338 16,-10 25,-23 29,-37 29,-40 12,-106 -52,-101 -203,18 -406,35 -610,45 -104,6 -208,10 -312,11 -69,1 -206,-27 -266,7 -647,369 -1256,792 -1884,1188 -7,4 -12,8 -16,13 -59,-4 -118,-5 -178,-3 -61,1 -122,5 -183,12 -56,7 -210,15 -170,107 47,106 56,217 29,323 -283,26 -567,53 -850,80 -28,2 -47,17 -57,35 -18,14 -28,36 -18,63 89,240 -91,480 -364,475 -36,-1 -71,30 -69,65 6,120 13,240 20,360 2,35 27,48 60,60 40,15 76,33 116,51 42,20 84,39 126,58 80,38 161,75 242,112 91,42 183,85 274,127l27 406 -65 -33c-21,-11 -41,-10 -57,-3 -364,66 -720,158 -1069,275 -67,23 -44,135 -45,186 0,64 0,128 1,192 2,74 -7,105 56,156 44,35 87,71 130,106 13,214 21,428 25,643 0,10 5,18 11,23 1,1 1,1 2,2 4,7 11,13 19,14 33,7 65,7 98,1 18,3 39,-6 40,-29l15 -484c123,97 246,193 371,289 15,11 32,15 49,14l9 669c1,18 14,28 29,30 1,0 2,0 3,1 38,9 77,9 115,2 5,-2 9,-4 13,-8 14,-2 27,-12 29,-28 22,-240 34,-480 37,-720 209,-49 415,-107 618,-173 10,229 23,459 39,688 2,25 29,34 47,28 40,-1 80,-8 118,-22 8,-2 15,-6 19,-14 2,-2 3,-4 3,-7 3,-4 5,-9 6,-15 16,-250 25,-500 28,-750 36,-13 71,-27 106,-41 18,-7 30,-19 37,-33 11,-9 18,-23 19,-41 6,-135 10,-270 13,-405 8,-24 1,-51 -29,-68 -182,-100 -366,-199 -550,-296l4 -407c286,132 573,264 859,397 71,33 143,64 214,97 62,29 124,77 196,61 67,-15 134,-29 202,-42 32,3 65,4 98,4 53,1 110,1 160,22 97,41 140,142 156,234 10,56 11,114 13,172 3,61 5,123 7,185 4,124 6,248 6,372 0,77 0,154 -1,231 0,46 -3,91 -3,136 0,34 -12,100 30,117 15,6 31,3 47,3l51 -2c0,0 198,-7 198,-7 22,-1 45,-13 45,-35 -2,-184 -3,-367 -5,-551 -1,-161 -4,-326 46,-482 100,-310 423,-461 705,-606 87,-44 173,-91 254,-144 41,-28 80,-51 84,-102 3,-40 -2,-80 -5,-120 29,-27 55,-56 77,-87 10,207 14,414 13,622 0,12 6,22 17,27 12,6 27,5 40,4 16,-1 33,-3 49,-4 33,-2 66,-4 98,-6 16,-2 31,-11 34,-26 4,-5 6,-11 7,-18 29,-273 25,-548 23,-823l-1 -202c19,-7 40,-14 61,-21 116,-35 230,-70 313,-157 9,-10 14,-20 17,-30 4,-9 7,-19 6,-31 -12,-233 -25,-465 -37,-698zm-4298 1803c1,-3 2,-7 1,-11 -9,-133 -18,-265 -26,-397 46,21 92,43 139,64 13,6 27,13 41,19l-4 403c-50,-26 -101,-52 -151,-78zm656 854l-18 6c-3,-99 -3,-199 -1,-299l28 -6c-2,99 -5,199 -9,299zm-75 28l-53 19c-8,-103 -7,-207 3,-311l1 -2 47 -12c-2,102 -1,204 2,306zm-110 40c-20,7 -41,14 -61,21 -6,-108 -7,-216 -3,-324l65 -17c-10,107 -10,213 -1,320zm-118 40c-20,7 -40,13 -60,20 -8,-111 -9,-222 -1,-333l57 -15c-4,109 -2,219 4,328zm-117 38c-20,6 -40,13 -61,19 -7,-112 -10,-225 -8,-337l66 -18c-6,112 -5,224 3,336zm-118 36c-23,7 -46,13 -68,20 -8,-113 -11,-227 -9,-340l68 -19c-1,113 2,226 9,339zm-125 36c-24,6 -47,13 -71,19 -4,-114 -3,-229 4,-343l57 -16c-1,113 2,227 10,340zm-128 34c-21,5 -41,10 -62,15 -1,-3 -2,-6 -3,-8 0,-110 1,-221 4,-331l63 -18c-6,114 -6,228 -2,342zm-123 30l-56 13c2,-111 3,-222 2,-333l58 -17c-3,112 -4,225 -4,337zm-114 26c-20,5 -40,9 -60,13 3,-109 5,-217 8,-326l55 -16c0,109 -1,219 -3,329zm930 -140c-3,237 -12,473 -27,709 -17,5 -33,8 -50,11 -5,0 -10,1 -14,1 -16,-225 -28,-450 -38,-675 43,-15 86,-30 129,-46zm-878 256c-3,227 -15,455 -35,682 -3,0 -6,1 -8,1 -16,2 -31,2 -47,0 -1,0 -3,0 -4,-1l-10 -660c35,-7 69,-14 104,-22zm-653 -316l-16 507c-13,1 -26,1 -40,0 -3,-190 -10,-379 -21,-568 13,10 25,20 38,30 13,11 26,21 39,31zm417 -123c-2,95 -4,190 -7,286l-54 -43c1,-19 -3,-40 -4,-57 -2,-32 -3,-64 -5,-96l-7 -146 77 56zm-122 196l-62 -49 -8 -287 54 40 9 176c2,30 3,59 5,89 0,10 1,20 2,31zm-121 -96l-51 -41c-7,-94 -12,-188 -13,-282l56 40 8 283zm-113 -90l-52 -42c-2,-90 -4,-180 -6,-269l49 35c0,92 3,184 9,276zm-111 -90l-46 -37 -5 -261 46 34c1,88 3,176 5,264zm-105 -85l-44 -37c-2,-83 -3,-165 -2,-248l41 30 5 255zm952 -622c254,128 505,261 754,396 -356,88 -710,184 -1061,289 -208,-151 -415,-302 -622,-453 304,-97 614,-175 929,-232z"/></g></g><text x="0" y="5669" fill="#000000" font-size="5px" font-weight="bold" font-family="'Helvetica Neue', Helvetica, Arial-Unicode, Arial, Sans-serif">Created by popcornarts</text><text x="0" y="5674" fill="#000000" font-size="5px" font-weight="bold" font-family="'Helvetica Neue', Helvetica, Arial-Unicode, Arial, Sans-serif">from the Noun Project</text></svg>