<svg xmlns="http://www.w3.org/2000/svg" data-name="Layer 1" viewBox="0 0 100 125" x="0px" y="0px"><defs><style>
      .cls-1 {
        fill-rule: evenodd;
      }
    </style></defs><path class="cls-1" d="m55.354,58.251c.258-.443.604-.94,1.005-1.515,1.726-2.478,4.731-6.793,4.731-11.408,0-5.522-5.123-11.266-11.09-11.266s-11.089,5.745-11.089,11.266c0,4.616,3.005,8.931,4.731,11.408.401.575.747,1.071,1.005,1.515h10.708Zm14.728-12.401c.628-.455,1.506-.315,1.961.313.455.628.315,1.506-.313,1.961l-.649.47h11.807c.809,0,1.439.646,1.401,1.53v9.955c0,.774-.626,1.401-1.4,1.401s-1.401-.627-1.401-1.401v-8.673h-10.386l.623.448c.628.452.77,1.327.319,1.955-.453.628-1.328.771-1.956.319l-4.058-2.92c-.928-.609-.9-1.805-.042-2.392l4.095-2.968h0Zm-21.296-5.976c.385-.671,1.241-.902,1.912-.516.671.385.902,1.241.517,1.912l-2.01,3.48h4.019c1.028,0,1.844,1.135,1.147,2.22l-3.157,5.468c-.386.671-1.241.902-1.912.517-.67-.385-.901-1.241-.517-1.912l2.01-3.48h-4.02v-.005c-1.064.001-1.754-1.16-1.214-2.098l3.224-5.584h0Zm2.423-10.757c-.404.677-1.281.89-1.948.477-.194-.12-.316-.251-.443-.435l-2.968-4.095c-.455-.628-.315-1.506.313-1.961.628-.455,1.506-.315,1.961.313l.47.649v-6.972c0-.809.646-1.44,1.53-1.401h19.062c.773-.001,1.4.626,1.4,1.4s-.627,1.401-1.4,1.401h-17.78v5.552l.448-.623c.453-.628,1.328-.771,1.956-.319.628.452.771,1.328.319,1.955l-2.92,4.059h0Zm6.464,30.54v4.639c0,2.456-2,4.456-4.455,4.456h-6.435c-2.455,0-4.456-1.999-4.456-4.456v-4.639c0-.109-.409-.479-.993-1.317-1.91-2.742-5.236-7.518-5.236-13.012,0-7.026,6.367-14.079,13.902-14.079s13.902,7.052,13.902,14.079c0,5.494-3.326,10.27-5.236,13.012-.584.838-.993,1.208-.993,1.317h0Zm-12.538,1.406l.005,3.233c0,.903.74,1.643,1.643,1.643h6.435c.903,0,1.642-.74,1.642-1.643v-3.233h-9.726Zm-16.822-12.94c-.628-.455-.769-1.333-.313-1.961.455-.628,1.333-.768,1.96-.313l4.096,2.968c.857.587.885,1.783-.042,2.392l-4.058,2.92c-.628.452-1.504.309-1.956-.319-.453-.628-.309-1.504.319-1.955l.623-.448h-11.847c-.809,0-1.439-.646-1.4-1.53v-9.955c-.002-.788.641-1.401,1.402-1.401.773,0,1.4.627,1.4,1.401v8.674s10.467,0,10.467,0l-.649-.47h0Zm20.479,22.739c.508-.852,1.76-.965,2.391-.042l2.968,4.096c.456.628.315,1.506-.313,1.961-.628.455-1.506.315-1.961-.313l-.47-.649v6.972c0,.809-.646,1.44-1.53,1.401h-19.062c-.774.001-1.401-.626-1.401-1.4s.627-1.401,1.401-1.401h17.779v-5.552l-.448.623c-.453.628-1.328.771-1.956.319-.628-.452-.771-1.328-.319-1.956l2.919-4.059h0Zm-20.992,24.137H6.407c-.777,0-1.407-.63-1.407-1.406,0-6.684,5.42-12.103,12.103-12.103s12.103,5.419,12.103,12.103c0,.776-.63,1.406-1.407,1.406h0Zm-19.88-2.813h18.368c-.681-4.495-4.562-7.884-9.184-7.884s-8.502,3.389-9.184,7.884h0Zm9.184-28.628c4.668,0,8.451,3.784,8.451,8.451s-3.784,8.451-8.451,8.451-8.451-3.784-8.451-8.451,3.784-8.451,8.451-8.451h0Zm3.988,4.464c-2.202-2.202-5.773-2.202-7.974,0-2.202,2.202-2.202,5.772,0,7.974,2.202,2.202,5.772,2.202,7.974,0s2.202-5.772,0-7.974h0Zm6.709-31.584H6.407c-.777,0-1.407-.63-1.407-1.407,0-6.684,5.42-12.102,12.103-12.102s12.103,5.418,12.103,12.102c0,.776-.63,1.407-1.407,1.407h0Zm-19.88-2.813h18.368c-.681-4.495-4.562-7.884-9.184-7.884s-8.502,3.389-9.184,7.884h0ZM17.103,5c4.668,0,8.451,3.784,8.451,8.451s-3.784,8.45-8.451,8.45-8.451-3.784-8.451-8.45,3.784-8.451,8.451-8.451h0Zm3.988,4.464c-2.202-2.202-5.773-2.202-7.974,0-2.202,2.202-2.202,5.772,0,7.974s5.772,2.202,7.974,0c2.202-2.202,2.202-5.772,0-7.974h0Zm72.503,85.536h-21.392c-.777,0-1.407-.63-1.407-1.406,0-6.684,5.419-12.103,12.103-12.103s12.103,5.419,12.103,12.103c0,.776-.63,1.406-1.407,1.406h0Zm-19.881-2.813h18.369c-.682-4.495-4.562-7.884-9.184-7.884s-8.502,3.389-9.185,7.884h0Zm9.185-28.628c4.667,0,8.451,3.784,8.451,8.451s-3.784,8.451-8.451,8.451-8.451-3.784-8.451-8.451,3.783-8.451,8.451-8.451h0Zm3.986,4.464c-2.202-2.202-5.772-2.202-7.974,0-2.202,2.202-2.202,5.772,0,7.974,2.202,2.202,5.772,2.202,7.974,0,2.202-2.202,2.202-5.772,0-7.974h0Zm6.71-31.584h-21.392c-.777,0-1.407-.63-1.407-1.407,0-6.684,5.419-12.102,12.103-12.102s12.103,5.418,12.103,12.102c0,.776-.63,1.407-1.407,1.407h0Zm-19.881-2.813h18.369c-.682-4.495-4.562-7.884-9.184-7.884s-8.502,3.389-9.185,7.884h0Zm9.185-28.627c4.667,0,8.451,3.784,8.451,8.451s-3.784,8.45-8.451,8.45-8.451-3.784-8.451-8.45,3.783-8.451,8.451-8.451h0Zm3.986,4.464c-2.202-2.202-5.772-2.202-7.974,0-2.202,2.202-2.202,5.772,0,7.974s5.772,2.202,7.974,0,2.202-5.772,0-7.974Z"/><text x="0" y="115" fill="#000000" font-size="5px" font-weight="bold" font-family="'Helvetica Neue', Helvetica, Arial-Unicode, Arial, Sans-serif">Created by Nur Lita</text><text x="0" y="120" fill="#000000" font-size="5px" font-weight="bold" font-family="'Helvetica Neue', Helvetica, Arial-Unicode, Arial, Sans-serif">from the Noun Project</text></svg>