<svg xmlns="http://www.w3.org/2000/svg" version="1.1" viewBox="-5.0 -10.0 110.0 135.0">
 <path d="m54.398 50.711c-2.2305-4.1016-1.6484-8.1602 0.39062-12.934 4.4961-10.477-1.6055-20.516-12.984-21.305-6.9219-0.47656-13.824 2.1016-15.496 9.5508-0.52344 2.3477 0.23828 5.5039-0.57031 7.457-0.55469 1.3281-3.4609 3.8125-4.0352 4.8672-0.066406 0.125-0.20312 0.59766 0.24219 0.80859 1.0742 0.50781 3.3047 1.0625 1.875 2.8594-0.53906 0.67969-0.375 0.61719 0.76953 1.1953 1.207 0.61719 0.76562 1.457 0.078125 2.0977-0.16016 0.14844-0.36719 0.34375-0.22656 0.48828 2.0586 2.1797-0.10938 5.8438 3.1953 5.1953l1.4297-0.35156c12.359-3.0547 10.805 4.6094 11.926 6.9609 0.19922 0.41406 0.64844 0.52344 1.8164-0.03125 3.5117-1.6797 8.7148-4.4688 11.59-6.8594zm-1.918-31.68c5.6406 4.8438 6.6992 12.469 3.7422 19.355-0.25391 0.59766-0.47656 1.168-0.67188 1.7148 6.5352 0.74219 12.258-4.3633 12.258-10.938 0.003906-7.9609-8.1523-13.195-15.328-10.133zm3.707 31.668h3.7188c0.31641 0 0.49219-0.3125 0.51953-0.59375l0.3125-3.0391c0.03125-0.34375 0.28125-0.61719 0.60156-0.6875 1.5508-0.40234 3.0547-1.0352 4.4375-1.8438 0.28906-0.17188 0.63672-0.13281 0.88672 0.066406l2.3672 1.9297c0.21875 0.18359 0.5625 0.27734 0.78906 0.054688l4.4023-4.4023c0.21875-0.21875 0.125-0.57031-0.046875-0.78906l-1.9297-2.375c-0.21875-0.26562-0.23438-0.63672-0.054688-0.91016 0.80859-1.3828 1.4336-2.8906 1.8359-4.4375 0.085937-0.32031 0.35938-0.54688 0.67578-0.57812l3.0469-0.3125c0.27734-0.03125 0.58594-0.21094 0.58594-0.51953v-6.2227c0-0.31641-0.3125-0.49219-0.58594-0.51953l-3.0469-0.3125c-0.31641-0.03125-0.59375-0.25391-0.67578-0.58203-0.40234-1.5469-1.0312-3.0508-1.8359-4.4375-0.17969-0.27734-0.16406-0.64062 0.054688-0.91406l1.9297-2.3672c0.17969-0.21875 0.27344-0.5625 0.046875-0.78906l-4.4023-4.4023c-0.21875-0.21875-0.5625-0.125-0.78906 0.050781l-2.3672 1.9375c-0.25 0.19922-0.59766 0.23438-0.88672 0.066406-1.3828-0.80859-2.8906-1.4375-4.4375-1.8438-0.32031-0.078125-0.57031-0.34375-0.60156-0.6875l-0.3125-3.0391c-0.027343-0.28125-0.20312-0.59375-0.51953-0.59375h-6.2227c-0.3125 0-0.48828 0.3125-0.51953 0.59375l-0.3125 3.0391c-0.03125 0.34375-0.28125 0.60938-0.59766 0.6875-1.5508 0.40234-3.0625 1.0352-4.4375 1.8438-0.28906 0.16406-0.64062 0.13281-0.88672-0.066406l-2.375-1.9375c-0.21875-0.17969-0.55859-0.27344-0.78516-0.050781l-3.1289 3.1484c3.8125 0.066407 7.4023 1.0312 10.438 3.1016 1.7148-0.875 3.6602-1.375 5.7188-1.375 6.9414 0 12.57 5.6328 12.57 12.57 0 7.6367-6.7422 13.492-14.301 12.453-0.79688 2.9102-0.78516 6.5742 1.1211 9.0859zm-16.18 25.848c-1.0312 0-1.0312-1.5625 0-1.5625h1.8281c0-1.7656 1.2812-3.0469 3.0469-3.0469v-1.8281c0-1.0234 1.5625-1.0234 1.5625 0v1.8281l2.7734 0.003906v-1.8281c0-1.0234 1.5664-1.0234 1.5664 0v1.8281h2.7812v-1.8281c0-1.0234 1.5625-1.0234 1.5625 0v1.8281c1.7656 0 3.0469 1.2812 3.0469 3.0469h1.8281c1.0312 0 1.0312 1.5625 0 1.5625h-1.8281v2.7852h1.8281c1.0312 0 1.0312 1.5625 0 1.5625h-1.8281v2.7812h1.8281c1.0312 0 1.0312 1.5625 0 1.5625h-1.8281c0 1.7734-1.2812 3.0469-3.0469 3.0469v1.8281c0 1.0312-1.5625 1.0312-1.5625 0v-1.8281h-2.7812v1.8281c0 1.0312-1.5664 1.0312-1.5664 0v-1.8281h-2.7812v1.8281c0 1.0312-1.5625 1.0312-1.5625 0v-1.8281c-1.7656 0-3.0469-1.2734-3.0469-3.0469h-1.8281c-1.0312 0-1.0312-1.5625 0-1.5625h1.8281v-2.7812h-1.8281c-1.0312 0-1.0312-1.5625 0-1.5625h1.8281v-2.7852zm31.281 9.2266h4.1094c1.4922 0 2.707 1.2109 2.707 2.7031v3.8984h12.742c0.82812 0 1.5156-0.6875 1.5156-1.5234v-18.258c0-0.9375-1.1562-1.7148-2.0977-1.7148h-17.258c-0.94531 0-1.7227 0.77344-1.7227 1.7148v13.18zm5.2461 5.5391v-2.8359c0-0.625-0.51562-1.1406-1.1406-1.1406h-2.9609zm-1.2383-15.164c-1.0234 0-1.0234-1.5664 0-1.5664h13.062c1.0312 0 1.0312 1.5664 0 1.5664zm0 4.1641c-1.0234 0-1.0234-1.5625 0-1.5625h13.062c1.0312 0 1.0312 1.5625 0 1.5625zm0 4.1758c-1.0234 0-1.0234-1.5625 0-1.5625h13.062c1.0312 0 1.0312 1.5625 0 1.5625zm4.7344 4.1758c-1.0312 0-1.0312-1.5625 0-1.5625h8.3281c1.0312 0 1.0312 1.5625 0 1.5625zm-52.461-1.3281h-2.9609c-0.625 0-1.1484 0.51562-1.1484 1.1406v2.8359zm-5.668 5.0391v-3.8984c0-1.4922 1.2188-2.7031 2.707-2.7031h4.1016v-13.18c0-0.94141-0.76953-1.7148-1.7148-1.7148l-17.258-0.003906c-0.94141 0-2.1016 0.78125-2.1016 1.7148v18.258c0 0.83594 0.6875 1.5234 1.5234 1.5234zm2.8086-17.797c1.0234 0 1.0234 1.5664 0 1.5664h-13.066c-1.0234 0-1.0234-1.5664 0-1.5664zm0 4.1758c1.0234 0 1.0234 1.5625 0 1.5625h-13.066c-1.0234 0-1.0234-1.5625 0-1.5625zm0 4.1758c1.0234 0 1.0234 1.5625 0 1.5625h-13.066c-1.0234 0-1.0234-1.5625 0-1.5625zm-4.7344 4.1719c1.0312 0 1.0312 1.5625 0 1.5625h-8.332c-1.0234 0-1.0234-1.5625 0-1.5625zm29.242-31.125 1.5664-0.92187v4.9336c1.3906 0.29688 2.4805 1.3945 2.7852 2.7852h24.688c0.61719-2.7969 4.1016-3.8477 6.1484-1.8008 2.2969 2.293 0.65625 6.2344-2.5781 6.2344-1.7305 0-3.2031-1.2188-3.5703-2.875h-24.688c-0.60937 2.7969-4.1016 3.8477-6.1484 1.8008-0.48828-0.48437-0.83594-1.1016-0.98438-1.8008l-24.695 0.007813c-0.60938 2.7969-4.0977 3.8477-6.1445 1.8008-0.66406-0.65625-1.0742-1.5742-1.0742-2.5781 0-3.2422 3.9414-4.875 6.2344-2.5781 0.48828 0.48438 0.83594 1.1016 0.98438 1.8008h24.691c0.30469-1.3906 1.3945-2.4844 2.7852-2.7852zm-9.6445-20.656c-0.40234 0.94531-1.8359 0.33203-1.4336-0.60937l3.7344-8.7539c0.39844-0.94531 1.832-0.33203 1.4336 0.60938zm5.0977-7.0234c-0.88281-0.53125-0.078125-1.8711 0.80469-1.3398l5.0078 3.0156c0.49609 0.29688 0.50391 1.0352-0.011719 1.3398l-4.9922 3.0117c-0.88281 0.53125-1.6836-0.80859-0.80469-1.3398l3.8906-2.3477zm-8.707-1.3438c0.88281-0.53125 1.6875 0.80859 0.80859 1.3398l-3.8984 2.3438 3.8984 2.3477c0.88281 0.53125 0.070312 1.8711-0.80859 1.3398l-4.9883-3.0117c-0.51953-0.30469-0.51562-1.0391-0.011718-1.3398z"/>
<text x="0.0" y="117.5" font-size="5.0" font-weight="bold" font-family="Arbeit Regular, Helvetica, Arial-Unicode, Arial, Sans-serif" fill="#000000">Created by ND'studios</text><text x="0.0" y="122.5" font-size="5.0" font-weight="bold" font-family="Arbeit Regular, Helvetica, Arial-Unicode, Arial, Sans-serif" fill="#000000">from Noun Project</text></svg>