<svg xmlns="http://www.w3.org/2000/svg" version="1.1" viewBox="-5.0 -10.0 110.0 135.0">
 <path d="m83.91 63.559c0-1.8555-2.2539-2.7891-3.5625-1.4766-1.3125 1.3125-0.375 3.5625 1.4766 3.5625 1.1562-0.003906 2.0859-0.9375 2.0859-2.0859zm-47.949-36.605c0.88281-0.53125 1.6875 0.80469 0.80859 1.3359l-3.8906 2.3477 3.8906 2.3477c0.88281 0.53125 0.070313 1.8672-0.80859 1.3359l-4.9883-3.0078c-0.51953-0.30469-0.51562-1.0391-0.011718-1.3438zm8.707 1.3359c-0.88281-0.53125-0.070313-1.8672 0.80469-1.3359l5.0078 3.0117c0.50391 0.30469 0.50781 1.0391-0.011719 1.3438l-4.9922 3.0078c-0.875 0.53125-1.6836-0.80469-0.80469-1.3359l3.8906-2.3477zm-5.0977 7.0312c-0.40234 0.94141-1.8359 0.33203-1.4336-0.60937l3.7344-8.7578c0.39844-0.94141 1.832-0.33203 1.4336 0.61719zm-25.047 28.238c0-3.2422 3.9336-4.875 6.2344-2.5859 0.48438 0.48828 0.82813 1.1094 0.98438 1.8047h24.688c0.30469-1.3906 1.3984-2.4844 2.7891-2.7891l0.003906-4.0117c-1.7852 1.0195-3.7344 2.0391-5.7461 3-3.4219 1.6328-4-0.42187-4.4375-2.7422-0.49609-2.5938-1.1797-6.1797-9.5938-4.0859-2.1328 0.51953-4.668 1.3555-5.3086-1.8438-0.21875-1.1172-0.13281-2.7109-0.82422-3.4453-1.1016-1.168-0.50781-1.9219 0.10938-2.5195-1.4336-0.83984-1.9492-1.8672-1.0547-3.0117 0.50391-0.64062 0.54687-0.52344-0.49219-1.0234-1.1289-0.53906-2.3594-1.1875-1.5312-2.7031 0.69531-1.2812 3.5742-3.793 3.9648-4.7188 0.61719-1.4922-0.066406-4.7344 0.49219-7.207 0.86719-3.8906 3.0078-6.6016 5.7969-8.3359 2.2734-1.4141 4.9727-2.1758 7.7734-2.4062l4.3047-4.3047c0.79688-0.80469 2.0273-0.74219 2.875-0.046875l1.957 1.5938c1.2266-0.67188 2.5195-1.207 3.8594-1.6016l0.25781-2.5078c0.10938-1.0938 0.92969-2 2.0703-2h6.2188c1.1406 0 1.957 0.90234 2.0703 2l0.25781 2.5078c1.3398 0.39062 2.6289 0.92969 3.8594 1.6016l1.957-1.5938c0.84766-0.69141 2.0703-0.75391 2.875 0.046875l4.4023 4.4023c0.79687 0.79688 0.74219 2.0234 0.050781 2.875l-1.5938 1.957c0.67188 1.2266 1.207 2.5195 1.6016 3.8672l2.5078 0.25391c1.0938 0.10938 2 0.92969 2 2.0703v6.2188c0 1.1406-0.90234 1.957-2 2.0703l-2.5078 0.25781c-0.39062 1.3398-0.92969 2.6289-1.6016 3.8594l1.5938 1.957c0.69141 0.84766 0.75 2.0781-0.050781 2.875l-4.4023 4.4023c-0.80469 0.80469-2.0273 0.74219-2.875 0.050782l-1.957-1.5938c-1.2266 0.67188-2.5195 1.207-3.8594 1.6016l-0.25781 2.5078c-0.10938 1.0938-0.92969 2.0039-2.0703 2.0039h-5.0078c-1.1328 0.88281-2.5352 1.832-4.1172 2.7969v4.9297c1.3906 0.30469 2.4805 1.3984 2.7852 2.7891h24.695c0.60938-2.8008 4.0977-3.8516 6.1445-1.8047 2.2969 2.2969 0.66406 6.2344-2.5781 6.2344-1.7305 0-3.2031-1.2109-3.5625-2.8672l-24.707-0.007812c-0.60938 2.7969-4.1016 3.8477-6.1484 1.8008-0.48438-0.48828-0.82812-1.1094-0.98438-1.8008h-24.688c-0.61719 2.7969-4.1016 3.8477-6.1484 1.8008-0.66797-0.66016-1.0742-1.5742-1.0742-2.5781zm2.1719-1.4805c-1.3125 1.3125-0.375 3.5625 1.4766 3.5625 1.8555 0 2.7891-2.2539 1.4766-3.5625-0.8125-0.8125-2.1367-0.8125-2.9531 0zm3.2812 25.023c1.0234 0 1.0234 1.5625 0 1.5625h-8.332c-1.0312 0-1.0312-1.5625 0-1.5625zm4.7266-4.1719c1.0312 0 1.0312 1.5625 0 1.5625l-13.059-0.003907c-1.0312 0-1.0312-1.5625 0-1.5625zm0-4.1758c1.0312 0 1.0312 1.5625 0 1.5625l-13.059-0.003906c-1.0312 0-1.0312-1.5625 0-1.5625zm0-4.1758c1.0312 0 1.0312 1.5625 0 1.5625h-13.059c-1.0312 0-1.0312-1.5625 0-1.5625zm-1.4375 19.09c-0.14453 0.16016-0.35156 0.26562-0.58203 0.26562h-13.527c-1.6992 0-3.0859-1.3906-3.0859-3.0859v-18.258c0-1.8555 1.9062-3.2812 3.6602-3.2812h17.258c1.8125 0 3.2812 1.4727 3.2812 3.2812v13.961c0 0.26562-0.10547 0.42188-0.28125 0.59766zm-1.3633-1.293v-3.8984c0-1.4922 1.2109-2.707 2.7031-2.707h4.1094v-13.176c0-0.94531-0.77344-1.7227-1.7227-1.7227l-17.258-0.003906c-0.94141 0-2.0977 0.78125-2.0977 1.7227v18.258c0 0.83594 0.6875 1.5234 1.5234 1.5234zm5.6641-5.0391h-2.9609c-0.625 0-1.1406 0.51562-1.1406 1.1406v2.8359zm52.457 1.3281c-1.0312 0-1.0312-1.5625 0-1.5625h8.332c1.0234 0 1.0234 1.5625 0 1.5625zm-4.7266-4.1758c-1.0312 0-1.0312-1.5625 0-1.5625h13.062c1.0234 0 1.0234 1.5625 0 1.5625zm0-4.1758c-1.0312 0-1.0312-1.5625 0-1.5625h13.062c1.0234 0 1.0234 1.5625 0 1.5625zm0-4.1719c-1.0312 0-1.0312-1.5625 0-1.5625h13.062c1.0234 0 1.0234 1.5625 0 1.5625zm2.0195 17.793c-0.23438 0-0.44531-0.10547-0.58594-0.26562l-6.7266-6.5156c-0.17969-0.17969-0.27734-0.33203-0.28125-0.59766v-13.961c0-1.8125 1.4766-3.2812 3.2812-3.2812h17.258c1.7578 0 3.6641 1.4297 3.6641 3.2812v18.258c0 1.6953-1.3906 3.0859-3.0859 3.0859h-13.523zm-0.78125-2.6211v-2.8359c0-0.625-0.51562-1.1406-1.1484-1.1406h-2.9609zm-5.2461-5.5469h4.1016c1.4922 0 2.707 1.2188 2.707 2.707v3.8984h12.742c0.83594 0 1.5234-0.6875 1.5234-1.5234v-18.258c0-0.94141-1.1562-1.7227-2.1016-1.7227h-17.258c-0.94141 0-1.7148 0.77344-1.7148 1.7227l-0.003906 13.176zm-31.289-9.2188c-1.0234 0-1.0234-1.5625 0-1.5625h1.8281c0-1.7734 1.2812-3.0469 3.0469-3.0469v-1.8281c0-1.0312 1.5625-1.0312 1.5625 0v1.8281l2.7812 0.003906v-1.8281c0-1.0312 1.5625-1.0312 1.5625 0v1.8281h2.7812v-1.8281c0-1.0312 1.5625-1.0312 1.5625 0v1.8281c1.7734 0 3.0469 1.2734 3.0469 3.0469h1.8281c1.0312 0 1.0312 1.5625 0 1.5625h-1.8281v2.7812h1.8281c1.0312 0 1.0312 1.5625 0 1.5625h-1.8281v2.7852h1.8281c1.0312 0 1.0312 1.5625 0 1.5625h-1.8281c0 1.7656-1.2734 3.0469-3.0469 3.0469v1.8281c0 1.0312-1.5625 1.0312-1.5625 0v-1.8281l-2.7812-0.015624v1.8281c0 1.0312-1.5625 1.0312-1.5625 0v-1.8281h-2.7852v1.8281c0 1.0312-1.5625 1.0312-1.5625 0v-1.8281c-1.7656 0-3.0469-1.2812-3.0469-3.0469h-1.8281c-1.0234 0-1.0234-1.5625 0-1.5625h1.8281v-2.7852h-1.8281c-1.0234 0-1.0234-1.5625 0-1.5625h1.8281v-2.7812zm15.227-3.0469h-10.461c-0.75391 0-1.3789 0.61719-1.3789 1.3789v10.461c0 0.75 0.625 1.3789 1.3789 1.3789h10.461c0.75781 0 1.3789-0.625 1.3789-1.3789v-10.461c0-0.76172-0.62109-1.3789-1.3789-1.3789zm-3.1406-9.9414c0-1.8555-2.2539-2.7891-3.5625-1.4766-1.3125 1.3125-0.375 3.5625 1.4766 3.5625 1.1523-0.003906 2.0859-0.9375 2.0859-2.0859zm4.0977-12.863h3.7188c0.31641 0 0.49219-0.3125 0.51953-0.58594l0.3125-3.0469c0.03125-0.34375 0.28906-0.60938 0.60156-0.67969 1.5508-0.41016 3.0547-1.0352 4.4375-1.8438 0.28906-0.17187 0.64062-0.13281 0.88672 0.066407l2.3672 1.9297c0.21875 0.17969 0.5625 0.27734 0.78906 0.050782l4.3984-4.3984c0.21875-0.21875 0.125-0.57031-0.050782-0.78516l-1.9297-2.375c-0.21875-0.26562-0.22656-0.63672-0.054687-0.91406 0.80859-1.3789 1.4336-2.8828 1.8359-4.4375 0.082031-0.32812 0.35938-0.54688 0.67578-0.58203l3.0469-0.3125c0.27734-0.027344 0.58594-0.20312 0.58594-0.51953v-6.2188c0-0.31641-0.3125-0.49219-0.58594-0.51953l-3.0469-0.3125c-0.31641-0.03125-0.59375-0.25391-0.67578-0.58203-0.40234-1.5469-1.0312-3.0547-1.8359-4.4375-0.17188-0.27734-0.16406-0.64844 0.054687-0.91406l1.9297-2.3672c0.17969-0.21875 0.27344-0.57031 0.050782-0.78906l-4.3984-4.3984c-0.22656-0.22656-0.57031-0.125-0.78906 0.046875l-2.3672 1.9297c-0.24219 0.19922-0.59766 0.23828-0.88672 0.066406-1.3828-0.80859-2.8906-1.4336-4.4375-1.8438-0.31641-0.070313-0.57031-0.33594-0.60156-0.67969l-0.3125-3.0469c-0.027344-0.27734-0.20312-0.58594-0.51953-0.58594h-6.2188c-0.31641 0-0.49219 0.3125-0.51953 0.58594l-0.3125 3.0469c-0.03125 0.34375-0.28906 0.60937-0.60156 0.67969-1.5508 0.41016-3.0547 1.0352-4.4375 1.8438-0.28906 0.17188-0.64062 0.13281-0.88672-0.066406l-2.375-1.9297c-0.21875-0.17969-0.55859-0.27734-0.78906-0.046875l-3.1211 3.1406c3.8125 0.066407 7.4023 1.0312 10.441 3.1016 1.7109-0.88281 3.6602-1.375 5.7109-1.375 6.9453 0 12.574 5.625 12.574 12.57 0 7.6367-6.7422 13.492-14.301 12.453-0.80078 2.9023-0.79297 6.5742 1.1172 9.082zm-3.707-31.664c5.6406 4.8438 6.6992 12.469 3.75 19.355-0.25391 0.59766-0.48437 1.168-0.67578 1.7109 6.5352 0.74219 12.258-4.3594 12.258-10.934-0.003906-7.9688-8.1562-13.199-15.332-10.133zm1.9141 31.68c-2.2305-4.1016-1.6484-8.1602 0.39844-12.934 4.4922-10.477-1.6094-20.516-12.984-21.305-6.9258-0.47656-13.828 2.1016-15.5 9.5508-0.52344 2.3438 0.23828 5.5039-0.57031 7.457-0.54688 1.3281-3.4609 3.8086-4.0352 4.8672-0.23438 0.42969 4.1406 1.1172 2.125 3.6641-0.54297 0.67969-0.38281 0.61719 0.76562 1.1953 1.207 0.60938 0.76953 1.457 0.078125 2.0977-0.16016 0.14844-0.36719 0.33594-0.22656 0.48828 2.0625 2.1797-0.10938 5.8438 3.1953 5.1875l1.4297-0.35156c12.359-3.0508 10.805 4.6172 11.926 6.9609 0.19922 0.42188 0.64844 0.52344 1.8164-0.027344 3.5039-1.6758 8.707-4.4648 11.582-6.8516z"/>
<text x="0.0" y="117.5" font-size="5.0" font-weight="bold" font-family="Arbeit Regular, Helvetica, Arial-Unicode, Arial, Sans-serif" fill="#000000">Created by ND'studios</text><text x="0.0" y="122.5" font-size="5.0" font-weight="bold" font-family="Arbeit Regular, Helvetica, Arial-Unicode, Arial, Sans-serif" fill="#000000">from Noun Project</text></svg>